<svg width="19" height="20" viewBox="0 0 19 20" fill="none" xmlns="http://www.w3.org/2000/svg">
<g clip-path="url(#clip0_5_1506)">
<path d="M8.1111 9.48147H2.4074C2.13236 9.48147 1.86858 9.37222 1.6741 9.17773C1.47962 8.98325 1.37036 8.71948 1.37036 8.44444V4.81481C1.37036 4.53977 1.47962 4.27599 1.6741 4.08151C1.86858 3.88703 2.13236 3.77777 2.4074 3.77777H8.1111C8.38614 3.77777 8.64992 3.88703 8.8444 4.08151C9.03888 4.27599 9.14814 4.53977 9.14814 4.81481V8.44444C9.14814 8.71948 9.03888 8.98325 8.8444 9.17773C8.64992 9.37222 8.38614 9.48147 8.1111 9.48147ZM2.4074 4.81481V8.44444H8.1111V4.81481H2.4074Z" fill="white"/>
<path d="M16.9259 9.48147H11.2222C10.9472 9.48147 10.6834 9.37222 10.4889 9.17773C10.2944 8.98325 10.1852 8.71948 10.1852 8.44444V4.81481C10.1852 4.53977 10.2944 4.27599 10.4889 4.08151C10.6834 3.88703 10.9472 3.77777 11.2222 3.77777H16.9259C17.201 3.77777 17.4647 3.88703 17.6592 4.08151C17.8537 4.27599 17.963 4.53977 17.963 4.81481V8.44444C17.963 8.71948 17.8537 8.98325 17.6592 9.17773C17.4647 9.37222 17.201 9.48147 16.9259 9.48147ZM11.2222 4.81481V8.44444H16.9259V4.81481H11.2222Z" fill="white"/>
<path d="M8.1111 16.2222H2.4074C2.13236 16.2222 1.86858 16.1129 1.6741 15.9185C1.47962 15.724 1.37036 15.4602 1.37036 15.1852V11.5555C1.37036 11.2805 1.47962 11.0167 1.6741 10.8222C1.86858 10.6278 2.13236 10.5185 2.4074 10.5185H8.1111C8.38614 10.5185 8.64992 10.6278 8.8444 10.8222C9.03888 11.0167 9.14814 11.2805 9.14814 11.5555V15.1852C9.14814 15.4602 9.03888 15.724 8.8444 15.9185C8.64992 16.1129 8.38614 16.2222 8.1111 16.2222ZM2.4074 11.5555V15.1852H8.1111V11.5555H2.4074Z" fill="white"/>
<path d="M16.9259 16.2222H11.2222C10.9472 16.2222 10.6834 16.1129 10.4889 15.9185C10.2944 15.724 10.1852 15.4602 10.1852 15.1852V11.5555C10.1852 11.2805 10.2944 11.0167 10.4889 10.8222C10.6834 10.6278 10.9472 10.5185 11.2222 10.5185H16.9259C17.201 10.5185 17.4647 10.6278 17.6592 10.8222C17.8537 11.0167 17.963 11.2805 17.963 11.5555V15.1852C17.963 15.4602 17.8537 15.724 17.6592 15.9185C17.4647 16.1129 17.201 16.2222 16.9259 16.2222ZM11.2222 11.5555V15.1852H16.9259V11.5555H11.2222Z" fill="white"/>
</g>
<defs>
<clipPath id="clip0_5_1506">
<rect width="20" height="20" fill="black" transform="translate(0.333313 0.666656)"/>
</clipPath>
</defs>
</svg>
