<svg width="90" height="22" viewBox="0 0 90 22" fill="none" xmlns="http://www.w3.org/2000/svg">
<path d="M5.0894 17.5795C4.35241 17.5795 3.67105 17.4295 3.0453 17.1293C2.41955 16.8291 1.87724 16.4267 1.41836 15.9219C0.973383 15.4034 0.625746 14.8167 0.375448 14.1619C0.125149 13.507 0 12.8316 0 12.1358C0 11.3854 0.118197 10.6828 0.35459 10.0279C0.604888 9.35938 0.952525 8.76589 1.3975 8.24744C1.85638 7.72899 2.39174 7.32651 3.00358 7.04C3.61542 6.73984 4.29679 6.58977 5.04769 6.58977C5.97935 6.58977 6.78587 6.82171 7.46724 7.28558C8.16251 7.74946 8.74654 8.32248 9.21933 9.00465V6.77395H10.4917V17.4772C10.4917 18.4595 10.2483 19.285 9.76164 19.9535C9.28886 20.6357 8.64225 21.1473 7.82183 21.4884C7.01531 21.8295 6.13232 22 5.17284 22C3.93525 22 2.93406 21.7817 2.16925 21.3451C1.40445 20.9085 0.778707 20.3219 0.292015 19.5851L1.16806 18.9098C1.59913 19.5783 2.16925 20.0763 2.87843 20.4037C3.60152 20.7312 4.36632 20.8949 5.17284 20.8949C5.88202 20.8949 6.52862 20.7653 7.11265 20.506C7.71059 20.2605 8.18337 19.8853 8.53101 19.3805C8.89255 18.8757 9.07332 18.2412 9.07332 17.4772V15.3693C8.65616 16.0378 8.08603 16.5767 7.36295 16.986C6.63986 17.3817 5.88202 17.5795 5.0894 17.5795ZM5.48571 16.413C5.91678 16.413 6.32699 16.338 6.71635 16.1879C7.1196 16.0378 7.4881 15.84 7.82183 15.5944C8.15556 15.3352 8.43367 15.0487 8.65616 14.7349C8.87865 14.4211 9.0177 14.1005 9.07332 13.773V10.4781C8.86474 9.95969 8.56577 9.50264 8.17642 9.10698C7.78707 8.69767 7.34209 8.38388 6.84149 8.16558C6.3548 7.93364 5.84725 7.81767 5.31884 7.81767C4.707 7.81767 4.15774 7.94729 3.67105 8.20651C3.19826 8.45209 2.795 8.78636 2.46127 9.2093C2.14144 9.6186 1.89114 10.0825 1.71037 10.6009C1.5296 11.1194 1.43922 11.6378 1.43922 12.1563C1.43922 12.7293 1.54351 13.275 1.75209 13.7935C1.96067 14.2983 2.24573 14.7553 2.60728 15.1646C2.98272 15.5603 3.41379 15.8673 3.90049 16.0856C4.40108 16.3039 4.92949 16.413 5.48571 16.413Z" fill="#273756"/>
<path d="M22.7597 17.4363H21.3414V11.4809C21.3414 10.2257 21.1537 9.31163 20.7782 8.7386C20.4028 8.15194 19.8118 7.8586 19.0053 7.8586C18.449 7.8586 17.8998 7.99504 17.3575 8.26791C16.8151 8.52713 16.3354 8.88868 15.9182 9.35256C15.515 9.80279 15.223 10.3212 15.0422 10.9079V17.4363H13.6238V6.77395H14.917V9.18884C15.2091 8.67039 15.5915 8.22015 16.0642 7.83814C16.537 7.44248 17.0724 7.1355 17.6703 6.91721C18.2683 6.69891 18.8871 6.58977 19.5267 6.58977C20.1246 6.58977 20.6322 6.69891 21.0494 6.91721C21.4665 7.1355 21.8003 7.4493 22.0506 7.8586C22.3009 8.25426 22.4816 8.7386 22.5929 9.31163C22.7041 9.87101 22.7597 10.4986 22.7597 11.1944V17.4363Z" fill="#273756"/>
<path d="M29.5263 6.23777V17.4363H26.0722V0H28.8255L38.0114 11.4932V0.0245578H41.4655V17.4363H38.5871L29.5263 6.23777Z" fill="#8B6AF3"/>
<path d="M50.6992 17.6819C49.648 17.6819 48.6968 17.51 47.8458 17.1661C46.9948 16.806 46.2689 16.323 45.6682 15.7172C45.0675 15.0951 44.6003 14.3911 44.2665 13.6052C43.9495 12.803 43.791 11.9598 43.791 11.0757C43.791 9.84781 44.0663 8.72632 44.617 7.71126C45.1843 6.69619 45.9853 5.88577 47.0198 5.28C48.0711 4.65786 49.3059 4.34679 50.7242 4.34679C52.1593 4.34679 53.3858 4.65786 54.4036 5.28C55.4215 5.88577 56.1974 6.69619 56.7314 7.71126C57.2821 8.70995 57.5574 9.79051 57.5574 10.9529C57.5574 11.1494 57.5491 11.354 57.5324 11.5669C57.5157 11.7633 57.499 11.9271 57.4823 12.058H47.3452C47.412 12.7129 47.6039 13.286 47.9209 13.7771C48.2546 14.2683 48.6718 14.6448 49.1724 14.9068C49.6897 15.1524 50.2403 15.2752 50.8244 15.2752C51.4918 15.2752 52.1176 15.1196 52.7016 14.8086C53.3023 14.4811 53.7111 14.0554 53.9281 13.5315L56.8065 14.3174C56.4895 14.9723 56.0306 15.5535 55.4299 16.061C54.8458 16.5686 54.1533 16.9697 53.3524 17.2644C52.5514 17.5427 51.667 17.6819 50.6992 17.6819ZM47.2701 9.9706H54.1283C54.0616 9.31572 53.8697 8.75088 53.5526 8.27609C53.2523 7.78493 52.8518 7.40837 52.3512 7.14642C51.8506 6.86809 51.2916 6.72893 50.6742 6.72893C50.0735 6.72893 49.5228 6.86809 49.0222 7.14642C48.5383 7.40837 48.1378 7.78493 47.8208 8.27609C47.5204 8.75088 47.3369 9.31572 47.2701 9.9706Z" fill="#8B6AF3"/>
<path d="M75.5034 4.56781H78.6822L73.2007 17.4363H70.3973L68.1947 11.9107L66.0421 17.4363H63.2137L57.7572 4.56781H60.911L64.8157 14.2928L66.3425 10.0934L64.0648 4.59237H66.8431L68.1947 8.52167L69.5713 4.59237H72.3496L70.0719 10.0934L71.6238 14.2928L75.5034 4.56781Z" fill="#8B6AF3"/>
<path d="M84.7437 17.6819C83.6257 17.6819 82.5578 17.5018 81.5399 17.1416C80.522 16.7814 79.646 16.2493 78.9118 15.5453L80.1132 13.4087C80.8975 14.0309 81.6651 14.4893 82.416 14.784C83.1835 15.0787 83.9177 15.226 84.6186 15.226C85.2694 15.226 85.7866 15.1114 86.1704 14.8822C86.5709 14.653 86.7711 14.3092 86.7711 13.8508C86.7711 13.5397 86.6627 13.3023 86.4458 13.1386C86.2288 12.9585 85.9118 12.803 85.4946 12.672C85.0941 12.541 84.6019 12.3937 84.0179 12.23C83.05 11.9189 82.2407 11.616 81.59 11.3213C80.9392 11.0266 80.4469 10.6582 80.1132 10.2162C79.7962 9.75777 79.6376 9.17656 79.6376 8.47256C79.6376 7.62121 79.8546 6.89265 80.2884 6.28688C80.739 5.66474 81.3564 5.18177 82.1406 4.83795C82.9416 4.49414 83.876 4.32223 84.944 4.32223C85.8784 4.32223 86.7628 4.46958 87.5971 4.76428C88.4315 5.0426 89.1907 5.50102 89.8749 6.13954L88.5232 8.22698C87.8558 7.71944 87.2217 7.35107 86.621 7.12186C86.0203 6.87628 85.4112 6.75349 84.7938 6.75349C84.4434 6.75349 84.1096 6.79442 83.7926 6.87628C83.4922 6.95814 83.2419 7.0973 83.0417 7.29377C82.8582 7.47386 82.7664 7.73581 82.7664 8.07963C82.7664 8.3907 82.8498 8.63628 83.0167 8.81637C83.2002 8.98009 83.4672 9.12744 83.8176 9.25842C84.1847 9.38939 84.6269 9.53674 85.1442 9.70046C86.1955 9.99516 87.0798 10.298 87.7974 10.6091C88.5316 10.9202 89.0822 11.3049 89.4493 11.7633C89.8164 12.2054 90 12.8193 90 13.6052C90 14.8822 89.5244 15.8809 88.5733 16.6013C87.6222 17.3217 86.3456 17.6819 84.7437 17.6819Z" fill="#8B6AF3"/>
</svg>
